HIERARCHY
ROOT hip
{
  OFFSET 0 0 0
  CHANNELS 6 Xposition Yposition Zposition Zrotation Yrotation Xrotation
  JOINT abdomen
  {
    OFFSET 0 20.6881 -0.73152
    CHANNELS 3 Zrotation Xrotation Yrotation
    JOINT chest
    {
      OFFSET 0 11.7043 -0.48768
      CHANNELS 3 Zrotation Xrotation Yrotation
      JOINT neck
      {
        OFFSET 0 22.1894 -2.19456
        CHANNELS 3 Zrotation Xrotation Yrotation
        JOINT head
        {
          OFFSET -0.24384 7.07133 1.2192
          CHANNELS 3 Zrotation Xrotation Yrotation
          JOINT leftEye
          {
            OFFSET 4.14528 8.04674 8.04672
            CHANNELS 3 Zrotation Xrotation Yrotation
            End Site
            {
              OFFSET 1 0 0
            }
          }
          JOINT rightEye
          {
            OFFSET -3.6576 8.04674 8.04672
            CHANNELS 3 Zrotation Xrotation Yrotation
            End Site
            {
              OFFSET 1 0 0
            }
          }
        }
      }
      JOINT rCollar
      {
        OFFSET -2.68224 19.2634 -4.8768
        CHANNELS 3 Zrotation Xrotation Yrotation
        JOINT rShldr
        {
          OFFSET -8.77824 -1.95073 1.46304
          CHANNELS 3 Zrotation Xrotation Yrotation
          JOINT rForeArm
          {
            OFFSET -28.1742 -1.7115 0.48768
            CHANNELS 3 Zrotation Xrotation Yrotation
            JOINT rHand
            {
              OFFSET -22.5879 0.773209 7.07136
              CHANNELS 3 Zrotation Xrotation Yrotation
              JOINT rThumb1
              {
                OFFSET -1.2192 -0.487915 3.41376
                CHANNELS 3 Zrotation Xrotation Yrotation
                JOINT rThumb2
                {
                  OFFSET -3.37035 -0.52449 3.41376
                  CHANNELS 3 Zrotation Xrotation Yrotation
                  End Site
                  {
                    OFFSET -1.78271 -1.18214 1.43049
                  }
                }
              }
              JOINT rIndex1
              {
                OFFSET -7.75947 0.938293 5.60832
                CHANNELS 3 Zrotation Xrotation Yrotation
                JOINT rIndex2
                {
                  OFFSET -2.54057 -0.884171 1.56538
                  CHANNELS 3 Zrotation Xrotation Yrotation
                  End Site
                  {
                    OFFSET -1.62519 -0.234802 1.16502
                  }
                }
              }
              JOINT rMid1
              {
                OFFSET -8.24714 1.18213 3.41376
                CHANNELS 3 Zrotation Xrotation Yrotation
                JOINT rMid2
                {
                  OFFSET -3.10165 -0.590103 1.0647
                  CHANNELS 3 Zrotation Xrotation Yrotation
                  End Site
                  {
                    OFFSET -2.48547 -0.328903 0.83742
                  }
                }
              }
              JOINT rRing1
              {
                OFFSET -8.82822 0.546677 1.51678
                CHANNELS 3 Zrotation Xrotation Yrotation
                JOINT rRing2
                {
                  OFFSET -2.60934 -0.819778 -0.0198488
                  CHANNELS 3 Zrotation Xrotation Yrotation
                  End Site
                  {
                    OFFSET -2.33842 -0.294052 0.168128
                  }
                }
              }
              JOINT rPinky1
              {
                OFFSET -8.27202 -0.0477905 -0.4584
                CHANNELS 3 Zrotation Xrotation Yrotation
                JOINT rPinky2
                {
                  OFFSET -1.82734 -0.647385 -0.700984
                  CHANNELS 3 Zrotation Xrotation Yrotation
                  End Site
                  {
                    OFFSET -1.69225 -0.51767 -0.607171
                  }
                }
              }
            }
          }
        }
      }
      JOINT lCollar
      {
        OFFSET 2.68224 19.2634 -4.8768
        CHANNELS 3 Zrotation Xrotation Yrotation
        JOINT lShldr
        {
          OFFSET 8.77824 -1.95073 1.46304
          CHANNELS 3 Zrotation Xrotation Yrotation
          JOINT lForeArm
          {
            OFFSET 28.1742 -1.7115 0.48768
            CHANNELS 3 Zrotation Xrotation Yrotation
            JOINT lHand
            {
              OFFSET 22.5879 0.773209 7.07136
              CHANNELS 3 Zrotation Xrotation Yrotation
              JOINT lThumb1
              {
                OFFSET 1.2192 -0.487915 3.41376
                CHANNELS 3 Zrotation Xrotation Yrotation
                JOINT lThumb2
                {
                  OFFSET 3.37035 -0.52449 3.41376
                  CHANNELS 3 Zrotation Xrotation Yrotation
                  End Site
                  {
                    OFFSET 1.78271 -1.18214 1.43049
                  }
                }
              }
              JOINT lIndex1
              {
                OFFSET 7.75947 0.938293 5.60832
                CHANNELS 3 Zrotation Xrotation Yrotation
                JOINT lIndex2
                {
                  OFFSET 2.54057 -0.884171 1.56538
                  CHANNELS 3 Zrotation Xrotation Yrotation
                  End Site
                  {
                    OFFSET 1.62519 -0.234802 1.16502
                  }
                }
              }
              JOINT lMid1
              {
                OFFSET 8.24714 1.18213 3.41376
                CHANNELS 3 Zrotation Xrotation Yrotation
                JOINT lMid2
                {
                  OFFSET 3.10165 -0.590103 1.0647
                  CHANNELS 3 Zrotation Xrotation Yrotation
                  End Site
                  {
                    OFFSET 2.48547 -0.328903 0.83742
                  }
                }
              }
              JOINT lRing1
              {
                OFFSET 8.82822 0.546677 1.51678
                CHANNELS 3 Zrotation Xrotation Yrotation
                JOINT lRing2
                {
                  OFFSET 2.60934 -0.819778 -0.0198488
                  CHANNELS 3 Zrotation Xrotation Yrotation
                  End Site
                  {
                    OFFSET 2.33842 -0.294052 0.168128
                  }
                }
              }
              JOINT lPinky1
              {
                OFFSET 8.27202 -0.0477905 -0.4584
                CHANNELS 3 Zrotation Xrotation Yrotation
                JOINT lPinky2
                {
                  OFFSET 1.82734 -0.647385 -0.700984
                  CHANNELS 3 Zrotation Xrotation Yrotation
                  End Site
                  {
                    OFFSET 1.69225 -0.51767 -0.607171
                  }
                }
              }
            }
          }
        }
      }
    }
  }
  JOINT rButtock
  {
    OFFSET -8.77824 4.35084 1.2192
    CHANNELS 3 Zrotation Xrotation Yrotation
    JOINT rThigh
    {
      OFFSET 0 -1.70687 -2.19456
      CHANNELS 3 Zrotation Xrotation Yrotation
      JOINT rShin
      {
        OFFSET 0 -36.8199 0.73152
        CHANNELS 3 Zrotation Xrotation Yrotation
        JOINT rFoot
        {
          OFFSET 0.73152 -45.1104 -5.12064
          CHANNELS 3 Zrotation Xrotation Yrotation
          End Site
          {
            OFFSET -1.1221 -3.69964 12.103
          }
        }
      }
    }
  }
  JOINT lButtock
  {
    OFFSET 8.77824 4.35084 1.2192
    CHANNELS 3 Zrotation Xrotation Yrotation
    JOINT lThigh
    {
      OFFSET 0 -1.70687 -2.19456
      CHANNELS 3 Zrotation Xrotation Yrotation
      JOINT lShin
      {
        OFFSET 0 -36.8199 0.73152
        CHANNELS 3 Zrotation Xrotation Yrotation
        JOINT lFoot
        {
          OFFSET -0.73152 -45.1104 -5.12064
          CHANNELS 3 Zrotation Xrotation Yrotation
          End Site
          {
            OFFSET 1.1221 -3.69964 12.103
          }
        }
      }
    }
  }
}
MOTION
Frames:	4
Frame Time:	0.03333
-5.811100000000001 66.9692 -36.7948 -173.405608 17.643148 -170.564997 1.478308 3.208069 155.243091 1.420146 4.993504 -143.178432 3.168332 22.585269 -94.555013 34.802543 1.595235 27.65972 -29.581677 -5.634481 21.114442 8.170466 1.728922 23.8582 11.660204 26.961057 -28.094956 78.922596 -6.772257 79.645178 73.907324 -4.876975 80.827149 -154.297809 51.183358 137.912119 -38.713303 53.369038 26.019808 -138.008806 -13.363571 88.61389 9.420277 8.790139 -17.345936 16.648272 -5.59247 68.857063 -152.004181 -22.775914 152.238051 -5.758007 19.528429 0.188308 89.794168 68.456402 -44.506368 -156.553992 -2.478308 169.901908 -163.008374 -52.668698 168.445111 -161.675909 62.138202 117.977046 -72.258065 -56.524317 -57.945244 -106.354089 27.139924 84.10892 -175.800321 -2.313761 -65.916968 173.748892 12.283259 -144.349116 8.919964 64.063213 17.523368 74.179852 -73.334923 71.836947 143.63381 52.043019 -92.919999 122.608464 76.484305 -51.953253 1.063129 -11.773307 7.667112 33.866636 57.845531 -44.428238 4.908451 -38.04972 38.867863 102.82193 19.530129 -75.135946 -50.979492 -56.270233 -37.770285 -131.382736 30.052078 -160.109229 91.987343 -0.86374 -7.121115 -109.002298 -65.850894 -0.0 30.009999 52.24716 -99.399189 -17.013309 -26.077157 76.694589 -25.027105 -18.342979 25.955425 34.275001 -9.776162 100.665184 44.033032 -10.030711 177.704574 4.645589 -17.676544 99.910441
-6.2224 66.9823 -37.6992 -172.852275 19.509742 -170.615242 0.836945 4.23254 128.133714 -2.010996 4.332741 -116.640912 23.158014 17.96729 91.37256 -31.462127 20.757039 -150.165524 -24.130456 -4.536827 20.998118 16.847792 3.338999 22.26836 -134.325106 -33.750391 -153.66277 26.432428 1.089338 -65.722944 -51.037063 85.04817 125.178815 -22.944829 44.226537 17.196326 -176.099867 -52.541144 100.922766 -31.209404 -1.966378 8.214076 -29.211905 53.755964 19.619341 18.825345 -47.032434 57.030514 3.415239 26.39865 -3.700326 -132.213667 37.015425 121.143701 88.666427 69.111637 -46.990597 -154.001862 -2.897831 167.933797 -72.522214 36.349839 120.875865 -68.855622 -12.732834 169.155108 99.497687 33.244921 -97.353466 11.780154 -12.810716 -79.214147 5.963722 73.488303 104.542398 177.566564 2.256233 -144.911075 177.562657 -73.85907 -113.5269 -17.563848 3.950587 -34.404152 46.369771 17.874993 10.851267 -14.264123 -12.585626 -50.608817 9.233335 27.192041 -0.368035 145.470603 15.185425 -126.078058 39.332793 -56.574254 72.995924 -87.420899 -21.745372 -77.88077 119.34416 -18.370205 -178.775463 -64.505551 16.438982 -88.897805 21.762049 32.191315 -36.845271 104.242691 -69.004528 -76.668007 19.761365 -58.447906 121.412866 74.560112 62.374287 -2.537145 -105.932641 34.53673 -80.806694 176.882878 62.707539 -61.355266 -19.466593 40.907112 107.555648 -124.576453 13.333627 45.190671
-7.0421 66.3573 -38.3289 -172.432143 17.924037 -168.103378 2.276236 3.597545 147.647031 -0.230874 7.523668 -134.147093 6.076381 23.397912 -67.024026 31.02136 -11.622874 13.120029 -20.619144 -9.865668 50.765794 15.753668 4.092165 28.958444 82.634316 84.608056 -80.904986 109.293215 -25.106808 142.653813 -3.720383 -4.071234 60.12111 -20.211951 35.839971 12.931145 -29.719913 58.614146 8.764533 -84.866194 18.37875 29.545064 -18.170197 56.953711 26.432152 -97.786302 -0.871541 -5.852959 -160.45479 5.999831 137.174051 -150.50374 59.319222 112.987102 94.876689 70.395364 -53.462009 172.20719 -33.367233 172.511959 -16.289168 24.731296 70.028752 71.518168 -25.598 -16.046997 -30.336763 -45.131458 -30.305945 70.558543 -28.376368 125.122701 -179.067225 -0.611223 106.339739 5.649102 -7.148122 2.0027 165.668966 89.284581 -147.600854 58.934168 24.462781 25.033861 -4.168532 -75.979195 2.846927 58.16089 -73.723863 156.800392 -8.060692 -0.404207 -2.440402 -6.97417 -5.575385 -3.125079 66.608122 -65.063308 96.40688 -48.490579 -11.624589 -56.631105 68.778143 43.442803 -146.036545 -156.091716 54.314326 11.74156 -43.607557 45.879575 -38.325386 116.34339 -37.877774 -180.0 69.972387 -36.317218 33.70208 -82.350433 -22.356836 -165.548614 -111.284744 29.22209 -79.231526 169.89297 49.921678 13.113796 37.89822 35.467148 -77.765008 57.696022 22.051958 6.363192
-8.0733 66.3826 -39.1836 -173.059105 12.904207 -167.476374 2.585397 2.868705 137.94224 -0.726936 9.262027 -121.74347 11.989463 21.182413 -81.865583 25.471035 -9.792409 20.304987 -13.348877 -7.342826 57.474642 -15.629923 -3.228188 23.204439 -126.297274 -44.271452 -150.429625 -141.295009 17.37045 -137.776736 3.900316 87.880703 -91.501905 160.413545 -46.844061 142.98588 -16.726745 45.01431 -2.001248 31.784802 -71.396666 17.587488 2.774994 -72.443862 -80.486983 130.004851 -7.298958 -29.828819 -162.171929 -6.400223 143.299314 -21.077397 -70.550061 -30.231616 28.618963 -4.443544 -37.626893 178.207532 -48.064167 127.998564 -116.08515 17.886837 151.109662 78.219913 -40.701577 89.887207 165.262183 -9.551453 -132.30094 68.347335 -2.800716 -2.961411 -12.206238 8.182365 104.724102 171.562896 15.335394 -141.760775 44.93642 -76.373072 117.695207 -27.498366 1.391687 -40.723728 8.456674 -62.843403 18.795335 101.367732 0.581567 -128.247381 137.542376 34.716627 -128.823314 171.343589 -5.22631 -140.329117 -20.275443 25.323458 6.650057 -136.775156 -17.128924 172.687724 -45.936942 -20.525529 -33.721995 116.629256 -64.320688 9.685064 94.487143 0.910054 26.483439 -108.227824 -42.11722 160.992595 18.035408 -73.554227 112.968948 101.069083 60.839789 -4.367241 13.240107 63.563284 85.309169 -80.731051 -8.587723 -134.348119 -51.588947 24.21597 109.953053 -146.924768 -9.271791 15.176902
